# xmcd CD database file
#
# Track frame offsets:
#	150
#	10580
#	23056
#	39514
#	68072
#	85860
#	112295
#	131737
#	156743
#	176870
#	195509
#	218370
#
# Disc length: 3195 seconds
#
# Revision: 0
# Processed by: cddbd v1.5.2PL0 Copyright (c) Steve Scherf et al.
# Submitted via: CDex 1.70beta2
#
DISCID=a10c790c
DTITLE=Various Artist - A History of SCHEMA
DYEAR=2007
DGENRE=Jazz
TTITLE0=Balanco - Batucada do Silencio
TTITLE1=Balanco - Mrs Beat
TTITLE2=Balanco - The Girl from Montenegro
TTITLE3=Balanco - Metti una Sera a Cena(Jazzanova remix)
TTITLE4=Les Hommes - Girl on a Mission
TTITLE5=Nicola Conte - Bossa per Due
TTITLE6=Quintetto X - Senza Paura
TTITLE7=Paolo Achenza Trio - Semplicissimo
TTITLE8=Nicola Conte - Love Me till Sunday
TTITLE9=Nicola Conte - Fuoco Fatuo Koop remix
TTITLE10=S-tone Inc - Deeper Love
TTITLE11=S-tone Inc - Limbe
EXTD=YEAR: 2007
EXTT0=
EXTT1=
EXTT2=
EXTT3=
EXTT4=
EXTT5=
EXTT6=
EXTT7=
EXTT8=
EXTT9=
EXTT10=
EXTT11=
PLAYORDER=
